<svg width="25" height="61" viewBox="0 0 25 61" fill="none" xmlns="http://www.w3.org/2000/svg">
    <g clip-path="url(#clip0_503_5)">
        <path d="M10.0953 1.74937L10.0953 48.9344H1.70436C0.532157 48.9344 -0.200684 49.5813 0.385137 50.146L10.8604 60.206C11.4468 60.7708 12.9119 60.756 13.4983 60.1912L23.9729 50.153C24.5593 49.5888 23.8265 48.9344 22.6543 48.9344H14.0535L14.0535 1.74937C14.0598 1.60263 14.0133 1.45666 13.9167 1.32006C13.8201 1.18345 13.6753 1.05897 13.4909 0.953944C13.3065 0.848914 13.0862 0.765456 12.8429 0.708472C12.5997 0.651488 12.3384 0.622131 12.0744 0.622131C11.8105 0.622131 11.5492 0.651488 11.3059 0.708472C11.0626 0.765456 10.8423 0.848914 10.6579 0.953944C10.4735 1.05897 10.3288 1.18345 10.2321 1.32006C10.1355 1.45666 10.089 1.60263 10.0953 1.74937Z" fill="black"/>
    </g>
    <defs>
        <clipPath id="clip0_503_5">
            <rect width="60" height="24" fill="white" transform="matrix(0 -1 1 0 0.179504 60.6225)"/>
        </clipPath>
    </defs>
</svg>
